<svg xmlns="http://www.w3.org/2000/svg" viewBox="0 0 86.1 88.64"><g fillRule="evenodd"><path d="M61.74 12.5c-11.56-.73-21.21 2.59-28.15 11.84s-7.09 19.37-1.85 30.2a21.48 21.48 0 0 1-7.56-5.82C10 32.14 18.86 6 40.42.73a2.83 2.83 0 0 0 .4-.08C44.56-.7 47.55 0 50.41 3.07s6.08 5.16 9.17 7.7c.71.58 1.42 1.15 2.16 1.73z" fill="#ea1d24"/><path d="M24.26 75.61c11.48 1.5 21.17-1.25 28.09-10.46S59 45.8 54.2 35.05c1 .52 1.62.8 2.19 1.16 13.9 8.92 16.77 28.3 6.12 41.29a30 30 0 0 1-20.73 11.12 3.62 3.62 0 0 1-2.44-.54c-4.75-3.71-9.41-7.53-14.09-11.32a13.39 13.39 0 0 1-.99-1.15z" fill="#0098d3"/><path d="M52.75 57.11c-1.06 3.34-3.36 5.62-5.84 7.65-10.53 8.62-26.75 7.9-36.91-1.56A30.34 30.34 0 0 1 0 43.15a3.66 3.66 0 0 1 .6-2.44c3.55-4.43 7.21-8.78 10.84-13.15a13.77 13.77 0 0 1 1.2-1c-1.2 11.54 2 21.07 10.88 28s18.9 7.18 29.23 2.55z" fill="#fdd329"/><path d="M73.55 62.59c3.06-22.41-18.41-39.83-40.94-29.9a27.6 27.6 0 0 1 10.48-10C61.48 12.81 82.71 24.87 86 44a6.06 6.06 0 0 1-1.56 5.71c-3.79 4.05-7.19 8.43-10.89 12.88z"/></g></svg>